<svg id="Graphic_Elements" data-name="Graphic Elements" xmlns="http://www.w3.org/2000/svg" viewBox="0 0 1200 1200"><metadata><?xpacket begin="﻿" id="W5M0MpCehiHzreSzNTczkc9d"?>
<x:xmpmeta xmlns:x="adobe:ns:meta/" x:xmptk="Adobe XMP Core 6.0-c002 79.164488, 2020/07/10-22:06:53        ">
   <rdf:RDF xmlns:rdf="http://www.w3.org/1999/02/22-rdf-syntax-ns#">
      <rdf:Description rdf:about=""
            xmlns:xmp="http://ns.adobe.com/xap/1.0/"
            xmlns:xmpMM="http://ns.adobe.com/xap/1.0/mm/"
            xmlns:stEvt="http://ns.adobe.com/xap/1.0/sType/ResourceEvent#">
         <xmp:Label>Approved</xmp:Label>
         <xmp:MetadataDate>2022-05-13T11:12:06+07:00</xmp:MetadataDate>
         <xmpMM:InstanceID>xmp.iid:325ac133-458c-4f2f-9b38-9c6a01f6189c</xmpMM:InstanceID>
         <xmpMM:DocumentID>xmp.did:325ac133-458c-4f2f-9b38-9c6a01f6189c</xmpMM:DocumentID>
         <xmpMM:OriginalDocumentID>xmp.did:325ac133-458c-4f2f-9b38-9c6a01f6189c</xmpMM:OriginalDocumentID>
         <xmpMM:History>
            <rdf:Seq>
               <rdf:li>
                  <rdf:Description>
                     <stEvt:action>saved</stEvt:action>
                     <stEvt:instanceID>xmp.iid:325ac133-458c-4f2f-9b38-9c6a01f6189c</stEvt:instanceID>
                     <stEvt:when>2022-05-13T11:12:06+07:00</stEvt:when>
                     <stEvt:softwareAgent>Adobe Bridge 2021 (Macintosh)</stEvt:softwareAgent>
                     <stEvt:changed>/metadata</stEvt:changed>
                  </rdf:Description>
               </rdf:li>
            </rdf:Seq>
         </xmpMM:History>
      </rdf:Description>
   </rdf:RDF>
</x:xmpmeta>
                                                                                                    
                                                                                                    
                                                                                                    
                                                                                                    
                                                                                                    
                                                                                                    
                                                                                                    
                                                                                                    
                                                                                                    
                                                                                                    
                                                                                                    
                                                                                                    
                                                                                                    
                                                                                                    
                                                                                                    
                                                                                                    
                                                                                                    
                                                                                                    
                                                                                                    
                                                                                                    
                           
<?xpacket end="w"?></metadata>
<defs><style>.cls-1{fill:#fffffe;}.cls-2{fill:#b1978a;}.cls-3{fill-opacity:0;stroke:#5a382d;stroke-linecap:round;stroke-linejoin:round;stroke-width:13.46px;}.cls-4{fill:#5a382d;}</style></defs><path class="cls-1" d="M523.35,977.31c-75.72-88.92-78.8-224.19-69.35-337.84,8.29-99.88,27.38-240.43-56-315.69-41.35-37.37-151.5-79.31-126.09,13.58,17,62.08,83.45,50.18,108,91.22,58.07,97.24,2.84,245.4,4.23,326.08,2,117.76,30.22,299.19,140.4,368.77C547.08,1137.68,615,1150,641.89,1150c31.86,0,59-3.19,30.12-46.52-24.23-36.32-65.77-59.57-101-83.48a236.84,236.84,0,0,1-47.68-42.69"/><path class="cls-2" d="M398,323.78c-41.35-37.37-151.5-79.31-126.09,13.58,17,62.08,83.45,50.18,108,91.22,15.23,25.49,22.54,54.51,25.25,84.86a209.54,209.54,0,0,0,55.65-33.68C457,420,441.49,363,398,323.78"/><path class="cls-3" d="M523.35,977.31c-75.72-88.92-78.8-224.19-69.35-337.84,8.29-99.88,27.38-240.43-56-315.69-41.35-37.37-151.5-79.31-126.09,13.58,17,62.08,83.45,50.18,108,91.22,58.07,97.24,2.84,245.4,4.23,326.08,2,117.76,30.22,299.19,140.4,368.77C547.08,1137.68,615,1150,641.89,1150c31.86,0,59-3.19,30.12-46.52-24.23-36.32-65.77-59.57-101-83.48A236.84,236.84,0,0,1,523.35,977.31Z"/><path class="cls-1" d="M604.34,129.65s135.72-62,244.89,64.91l82.6-20.65-62,94.4S840.36,336.17,787.26,404c0,0-32.45,47.21-29.5,121,0,0,26.55,244.88,64.91,368.8,0,0,35.39,251.88-132.77,251.88,0,0-200.64,52-200.64-275.5,0,0,38.37-203.57,67.86-354,0,0,26.56-73.75,5.93-182.92s-20.67-79.67-17.73-147.52L557.12,50l47.22,79.65"/><path class="cls-2" d="M730.33,119.7c-69.43-15.79-126,10-126,10L557.12,50l-11.8,135.72c-2.13,48.82-2.71,47.23,4.82,83.19C679.22,252,718.5,169.71,730.33,119.7"/><path class="cls-4" d="M692.84,168a14.75,14.75,0,1,1-14.74-14.75A14.75,14.75,0,0,1,692.84,168"/><path class="cls-4" d="M734.18,203.4a14.77,14.77,0,1,1-14.78-14.76,14.79,14.79,0,0,1,14.78,14.76"/><path class="cls-4" d="M787.26,194.56a14.75,14.75,0,1,1-14.76-14.77,14.77,14.77,0,0,1,14.76,14.77"/><path class="cls-4" d="M754.63,274.16l-31.15,16.49L706.25,259.2l-29.5,17.69-20.63-32.46,22.48,18.74,22.89-11,16.49-43-.92,46.73,8.25,21.06,29.32-2.74"/><path class="cls-3" d="M604.34,129.65s135.72-62,244.89,64.91l82.6-20.65-62,94.4S840.36,336.17,787.26,404c0,0-32.45,47.21-29.5,121,0,0,26.55,244.88,64.91,368.8,0,0,35.39,251.88-132.77,251.88,0,0-200.64,52-200.64-275.5,0,0,38.37-203.57,67.86-354,0,0,26.56-73.75,5.93-182.92s-20.67-79.67-17.73-147.52L557.12,50Z"/></svg>